<?xml version="1.0" encoding="UTF-8" standalone="no"?>
<svg
   viewBox="0 0 512 512"
   version="1.1"
   id="svg1"
   sodipodi:docname="curriculum.svg"
   xml:space="preserve"
   inkscape:version="1.4.2 (f4327f4, 2025-05-13)"
   xmlns:inkscape="http://www.inkscape.org/namespaces/inkscape"
   xmlns:sodipodi="http://sodipodi.sourceforge.net/DTD/sodipodi-0.dtd"
   xmlns="http://www.w3.org/2000/svg"
   xmlns:svg="http://www.w3.org/2000/svg"><defs
     id="defs1" /><sodipodi:namedview
     id="namedview1"
     pagecolor="#ffffff"
     bordercolor="#000000"
     borderopacity="0.25"
     inkscape:showpageshadow="2"
     inkscape:pageopacity="0.0"
     inkscape:pagecheckerboard="0"
     inkscape:deskcolor="#d1d1d1"
     inkscape:zoom="1.1145218"
     inkscape:cx="381.32946"
     inkscape:cy="208.60964"
     inkscape:window-width="1920"
     inkscape:window-height="1009"
     inkscape:window-x="-8"
     inkscape:window-y="-8"
     inkscape:window-maximized="1"
     inkscape:current-layer="svg1" /><!--!Font Awesome Free 6.7.2 by @fontawesome - https://fontawesome.com License - https://fontawesome.com/license/free Copyright 2025 Fonticons, Inc.--><path
     fill="#fff9db"
     d="M 256,244 C 189.7,244 136,190.3 136,124 136,57.7 189.7,4 256,4 c 66.3,0 120,53.7 120,120 0,66.3 -53.7,120 -120,120 z m -30.5,56 h 61 c 9.7,0 17.5,7.8 17.5,17.5 0,4.2 -1.5,8.2 -4.2,11.4 l -27.4,32 31,115.1 h 0.6 l 34.6,-138.5 c 2.2,-8.7 11.1,-14 19.5,-10.8 61.9,23.6 105.9,83.6 105.9,153.8 0,15.1 -12.3,27.4 -27.4,27.4 L 75.4,508 C 60.3,508 48,495.7 48,480.6 48,410.4 92,350.4 153.9,326.8 c 8.4,-3.2 17.3,2.1 19.5,10.8 L 208,476.1 h 0.6 l 31,-115.1 -27.4,-32 c -2.7,-3.2 -4.2,-7.2 -4.2,-11.4 0,-9.7 7.8,-17.5 17.5,-17.5 z"
     id="path1-8"
     style="fill:#fff9bd;fill-opacity:1" /></svg>
